<svg width="32" height="32" viewBox="0 0 32 32" fill="none" xmlns="http://www.w3.org/2000/svg">
<path d="M27.7004 18.6751C27.9078 17.7648 28.0085 16.8336 28.0004 15.9001C27.9504 9.28755 22.4754 3.93755 15.8754 4.00005C13.0559 4.02979 10.3368 5.05147 8.19533 6.88586C6.05386 8.72025 4.62675 11.2502 4.16439 14.0317C3.70204 16.8133 4.23398 19.6689 5.66687 22.0974C7.09977 24.5259 9.3421 26.3723 12.0004 27.3126C12.4527 27.4755 12.9375 27.5268 13.4138 27.4624C13.8901 27.3979 14.3438 27.2194 14.7364 26.9421C15.129 26.6649 15.4489 26.2969 15.669 25.8696C15.889 25.4423 16.0028 24.9682 16.0004 24.4876V24.0001C15.9988 23.6056 16.0753 23.2148 16.2254 22.85C16.3756 22.4853 16.5965 22.154 16.8754 21.875C17.1543 21.5961 17.4857 21.3752 17.8504 21.225C18.2152 21.0749 18.606 20.9984 19.0004 21.0001H24.7754C25.4541 21.0005 26.1128 20.7708 26.6441 20.3485C27.1754 19.9262 27.5478 19.3363 27.7004 18.6751V18.6751Z" stroke="#001A78" stroke-width="3" stroke-linecap="round" stroke-linejoin="round"/>
<path d="M16 11.5C17.1046 11.5 18 10.6046 18 9.5C18 8.39543 17.1046 7.5 16 7.5C14.8954 7.5 14 8.39543 14 9.5C14 10.6046 14.8954 11.5 16 11.5Z" fill="#001A78"/>
<path d="M10.375 14.75C11.4796 14.75 12.375 13.8546 12.375 12.75C12.375 11.6454 11.4796 10.75 10.375 10.75C9.27043 10.75 8.375 11.6454 8.375 12.75C8.375 13.8546 9.27043 14.75 10.375 14.75Z" fill="#001A78"/>
<path d="M10.375 21.25C11.4796 21.25 12.375 20.3546 12.375 19.25C12.375 18.1454 11.4796 17.25 10.375 17.25C9.27043 17.25 8.375 18.1454 8.375 19.25C8.375 20.3546 9.27043 21.25 10.375 21.25Z" fill="#001A78"/>
<path d="M21.625 14.75C22.7296 14.75 23.625 13.8546 23.625 12.75C23.625 11.6454 22.7296 10.75 21.625 10.75C20.5204 10.75 19.625 11.6454 19.625 12.75C19.625 13.8546 20.5204 14.75 21.625 14.75Z" fill="#001A78"/>
</svg>
