<svg width="18" height="18" viewBox="0 0 18 18" fill="none" xmlns="http://www.w3.org/2000/svg">
<path fill-rule="evenodd" clip-rule="evenodd" d="M1.96875 15.1875C1.96875 14.7215 2.34651 14.3438 2.8125 14.3438H15.1875C15.6535 14.3438 16.0312 14.7215 16.0312 15.1875C16.0312 15.6535 15.6535 16.0312 15.1875 16.0312H2.8125C2.34651 16.0312 1.96875 15.6535 1.96875 15.1875Z" fill="#001A78" fill-opacity="0.85"/>
<path fill-rule="evenodd" clip-rule="evenodd" d="M4.5 3.09375C4.96599 3.09375 5.34375 3.47151 5.34375 3.9375V8.15625C5.34375 9.12595 5.72896 10.0559 6.41464 10.7416C7.10032 11.4273 8.0303 11.8125 9 11.8125C9.9697 11.8125 10.8997 11.4273 11.5854 10.7416C12.271 10.0559 12.6562 9.12595 12.6562 8.15625V3.9375C12.6562 3.47151 13.034 3.09375 13.5 3.09375C13.966 3.09375 14.3438 3.47151 14.3438 3.9375V8.15625C14.3438 9.5735 13.7807 10.9327 12.7786 11.9349C11.7765 12.937 10.4173 13.5 9 13.5C7.58275 13.5 6.22355 12.937 5.2214 11.9349C4.21925 10.9327 3.65625 9.5735 3.65625 8.15625V3.9375C3.65625 3.47151 4.03401 3.09375 4.5 3.09375Z" fill="#001A78" fill-opacity="0.85"/>
</svg>
