<svg width="18" height="18" viewBox="0 0 18 18" fill="none" xmlns="http://www.w3.org/2000/svg">
<path fill-rule="evenodd" clip-rule="evenodd" d="M5.34375 4.5C5.34375 4.03401 5.72151 3.65625 6.1875 3.65625H15.1875C15.6535 3.65625 16.0312 4.03401 16.0312 4.5C16.0312 4.96599 15.6535 5.34375 15.1875 5.34375H6.1875C5.72151 5.34375 5.34375 4.96599 5.34375 4.5Z" fill="#568CFF" fill-opacity="0.9"/>
<path fill-rule="evenodd" clip-rule="evenodd" d="M5.34375 9C5.34375 8.53401 5.72151 8.15625 6.1875 8.15625H15.1875C15.6535 8.15625 16.0312 8.53401 16.0312 9C16.0312 9.46599 15.6535 9.84375 15.1875 9.84375H6.1875C5.72151 9.84375 5.34375 9.46599 5.34375 9Z" fill="#568CFF" fill-opacity="0.9"/>
<path fill-rule="evenodd" clip-rule="evenodd" d="M5.34375 13.5C5.34375 13.034 5.72151 12.6562 6.1875 12.6562H15.1875C15.6535 12.6562 16.0312 13.034 16.0312 13.5C16.0312 13.966 15.6535 14.3438 15.1875 14.3438H6.1875C5.72151 14.3438 5.34375 13.966 5.34375 13.5Z" fill="#568CFF" fill-opacity="0.9"/>
<path d="M3.09375 10.125C3.71507 10.125 4.21875 9.62132 4.21875 9C4.21875 8.37868 3.71507 7.875 3.09375 7.875C2.47243 7.875 1.96875 8.37868 1.96875 9C1.96875 9.62132 2.47243 10.125 3.09375 10.125Z" fill="#568CFF" fill-opacity="0.9"/>
<path d="M3.09375 5.625C3.71507 5.625 4.21875 5.12132 4.21875 4.5C4.21875 3.87868 3.71507 3.375 3.09375 3.375C2.47243 3.375 1.96875 3.87868 1.96875 4.5C1.96875 5.12132 2.47243 5.625 3.09375 5.625Z" fill="#568CFF" fill-opacity="0.9"/>
<path d="M3.09375 14.625C3.71507 14.625 4.21875 14.1213 4.21875 13.5C4.21875 12.8787 3.71507 12.375 3.09375 12.375C2.47243 12.375 1.96875 12.8787 1.96875 13.5C1.96875 14.1213 2.47243 14.625 3.09375 14.625Z" fill="#568CFF" fill-opacity="0.9"/>
</svg>
