<svg width="18" height="18" viewBox="0 0 18 18" fill="none" xmlns="http://www.w3.org/2000/svg">
<path fill-rule="evenodd" clip-rule="evenodd" d="M10.1049 2.51101C10.6323 1.98365 11.3476 1.68738 12.0935 1.68738C12.8395 1.68738 13.5548 1.9837 14.0823 2.51117C14.6098 3.03864 14.9061 3.75403 14.9061 4.49998C14.9061 5.24593 14.6098 5.96132 14.0823 6.48879L14.0708 6.5001L7.33485 12.9829C6.99909 13.306 6.46496 13.2958 6.14182 12.9601C5.81869 12.6243 5.82891 12.0902 6.16467 11.767L12.894 5.2906C13.1019 5.08009 13.2186 4.79605 13.2186 4.49998C13.2186 4.20158 13.1001 3.91541 12.8891 3.70441C12.6781 3.49342 12.3919 3.37488 12.0935 3.37488C11.7951 3.37488 11.5089 3.49341 11.2979 3.70441L4.40028 10.588C4.4002 10.5881 4.40037 10.5879 4.40028 10.588C3.92651 11.0619 3.6601 11.7049 3.6601 12.375C3.6601 13.0452 3.92635 13.688 4.40028 14.162C4.87422 14.6359 5.51701 14.9021 6.18726 14.9021C6.8575 14.9021 7.50029 14.6359 7.97423 14.162L13.7476 8.40263C14.0775 8.07353 14.6118 8.07418 14.9409 8.40408C15.27 8.73399 15.2693 9.26822 14.9394 9.59733L9.16747 15.3552C9.16729 15.3554 9.16711 15.3556 9.16692 15.3557C8.37657 16.1458 7.30479 16.5896 6.18726 16.5896C5.06946 16.5896 3.99744 16.1456 3.20704 15.3552C2.41664 14.5648 1.9726 13.4928 1.9726 12.375C1.9726 11.2572 2.41664 10.1852 3.20704 9.39476L10.1049 2.51101C10.1049 2.51096 10.1048 2.51106 10.1049 2.51101Z" fill="#001A78" fill-opacity="0.85"/>
</svg>
