<svg width="18" height="18" viewBox="0 0 18 18" fill="none" xmlns="http://www.w3.org/2000/svg">
<path fill-rule="evenodd" clip-rule="evenodd" d="M10.9543 3.13703C11.3964 3.28439 11.6353 3.76222 11.488 4.2043L8.11295 14.3293C7.96559 14.7714 7.48776 15.0103 7.04568 14.8629C6.60361 14.7156 6.36469 14.2377 6.51205 13.7957L9.88705 3.67067C10.0344 3.22859 10.5122 2.98967 10.9543 3.13703Z" fill="#001A78" fill-opacity="0.85"/>
<path fill-rule="evenodd" clip-rule="evenodd" d="M3.65625 14.0625C3.65625 13.5965 4.03401 13.2188 4.5 13.2188H10.125C10.591 13.2188 10.9688 13.5965 10.9688 14.0625C10.9688 14.5285 10.591 14.9062 10.125 14.9062H4.5C4.03401 14.9062 3.65625 14.5285 3.65625 14.0625Z" fill="#001A78" fill-opacity="0.85"/>
<path fill-rule="evenodd" clip-rule="evenodd" d="M7.03125 3.9375C7.03125 3.47151 7.40901 3.09375 7.875 3.09375H13.5C13.966 3.09375 14.3438 3.47151 14.3438 3.9375C14.3438 4.40349 13.966 4.78125 13.5 4.78125H7.875C7.40901 4.78125 7.03125 4.40349 7.03125 3.9375Z" fill="#001A78" fill-opacity="0.85"/>
</svg>
