<svg width="18" height="18" viewBox="0 0 18 18" fill="none" xmlns="http://www.w3.org/2000/svg">
<path fill-rule="evenodd" clip-rule="evenodd" d="M1.96875 4.78125C1.96875 4.31526 2.34651 3.9375 2.8125 3.9375H15.1875C15.6535 3.9375 16.0312 4.31526 16.0312 4.78125C16.0312 5.24724 15.6535 5.625 15.1875 5.625H2.8125C2.34651 5.625 1.96875 5.24724 1.96875 4.78125Z" fill="#001A78" fill-opacity="0.85"/>
<path fill-rule="evenodd" clip-rule="evenodd" d="M1.96875 7.59375C1.96875 7.12776 2.34651 6.75 2.8125 6.75H11.8125C12.2785 6.75 12.6562 7.12776 12.6562 7.59375C12.6562 8.05974 12.2785 8.4375 11.8125 8.4375H2.8125C2.34651 8.4375 1.96875 8.05974 1.96875 7.59375Z" fill="#001A78" fill-opacity="0.85"/>
<path fill-rule="evenodd" clip-rule="evenodd" d="M1.96875 10.4062C1.96875 9.94026 2.34651 9.5625 2.8125 9.5625H15.1875C15.6535 9.5625 16.0312 9.94026 16.0312 10.4062C16.0312 10.8722 15.6535 11.25 15.1875 11.25H2.8125C2.34651 11.25 1.96875 10.8722 1.96875 10.4062Z" fill="#001A78" fill-opacity="0.85"/>
<path fill-rule="evenodd" clip-rule="evenodd" d="M1.96875 13.2188C1.96875 12.7528 2.34651 12.375 2.8125 12.375H11.8125C12.2785 12.375 12.6562 12.7528 12.6562 13.2188C12.6562 13.6847 12.2785 14.0625 11.8125 14.0625H2.8125C2.34651 14.0625 1.96875 13.6847 1.96875 13.2188Z" fill="#001A78" fill-opacity="0.85"/>
</svg>
