<svg width="18" height="18" viewBox="0 0 18 18" fill="none" xmlns="http://www.w3.org/2000/svg">
<path fill-rule="evenodd" clip-rule="evenodd" d="M1.96875 9C1.96875 8.53401 2.34651 8.15625 2.8125 8.15625H15.1875C15.6535 8.15625 16.0312 8.53401 16.0312 9C16.0312 9.46599 15.6535 9.84375 15.1875 9.84375H2.8125C2.34651 9.84375 1.96875 9.46599 1.96875 9Z" fill="#001A78" fill-opacity="0.85"/>
<path fill-rule="evenodd" clip-rule="evenodd" d="M9.00011 4.21875C7.07855 4.21875 6.12433 5.28872 6.12433 6.1875C6.12433 6.65349 5.74657 7.03125 5.28058 7.03125C4.81459 7.03125 4.43683 6.65349 4.43683 6.1875C4.43683 3.97846 6.57636 2.53125 9.00011 2.53125C10.8958 2.53125 12.5539 3.38037 13.2403 4.80086C13.443 5.22044 13.2673 5.72493 12.8477 5.92767C12.4281 6.13042 11.9236 5.95465 11.7209 5.53507C11.3948 4.86026 10.4513 4.21875 9.00011 4.21875Z" fill="#001A78" fill-opacity="0.85"/>
<path fill-rule="evenodd" clip-rule="evenodd" d="M8.92125 8.76373C9.05173 8.31637 9.52015 8.0595 9.9675 8.18998C10.8165 8.43761 11.7453 8.75505 12.4656 9.28247C13.2334 9.84458 13.7812 10.6608 13.7812 11.8125C13.7812 12.9329 13.1436 13.8672 12.2738 14.4881C11.4023 15.1103 10.2419 15.4687 9 15.4687C7.75806 15.4687 6.5977 15.1103 5.72624 14.4881C4.85644 13.8672 4.21875 12.9329 4.21875 11.8125C4.21875 11.3465 4.59651 10.9687 5.0625 10.9687C5.52849 10.9687 5.90625 11.3465 5.90625 11.8125C5.90625 12.2459 6.15098 12.7179 6.70676 13.1147C7.2609 13.5104 8.06929 13.7812 9 13.7812C9.93071 13.7812 10.7391 13.5104 11.2932 13.1147C11.849 12.7179 12.0938 12.2459 12.0938 11.8125C12.0938 11.2907 11.8822 10.9468 11.4688 10.644C11.0079 10.3066 10.3335 10.0545 9.495 9.80998C9.04765 9.6795 8.79077 9.21108 8.92125 8.76373Z" fill="#001A78" fill-opacity="0.85"/>
</svg>
