<svg width="32" height="32" viewBox="0 0 32 32" fill="none" xmlns="http://www.w3.org/2000/svg">
<path d="M26 3.5C27.3807 3.5 28.5 4.61929 28.5 6V26C28.5 27.3807 27.3807 28.5 26 28.5H6C4.61929 28.5 3.5 27.3807 3.5 26V6C3.5 4.61929 4.61929 3.5 6 3.5H26ZM-142 5.5C-141.172 5.5 -140.5 6.17157 -140.5 7V11C-140.5 11.8284 -141.172 12.5 -142 12.5C-142.828 12.5 -143.5 11.8284 -143.5 11V8.5H-150.5V23.5H-148C-147.172 23.5 -146.5 24.1716 -146.5 25C-146.5 25.8284 -147.172 26.5 -148 26.5H-156C-156.828 26.5 -157.5 25.8284 -157.5 25C-157.5 24.1716 -156.828 23.5 -156 23.5H-153.5V8.5H-160.5V11C-160.5 11.8284 -161.172 12.5 -162 12.5C-162.828 12.5 -163.5 11.8284 -163.5 11V7C-163.5 6.17157 -162.828 5.5 -162 5.5H-142ZM15.7734 21.3477L15.7725 21.3467C15.5415 21.5791 15.2681 21.765 14.9658 21.8916C14.66 22.0196 14.3315 22.0859 14 22.0859C13.6685 22.0859 13.34 22.0196 13.0342 21.8916C12.7317 21.7649 12.4576 21.5794 12.2266 21.3467V21.3477L10 19.1211L6.5 22.6211V25.5H25.5V20.6211L21 16.1211L15.7734 21.3477ZM6.5 18.3779L8.22656 16.6514C8.4574 16.4191 8.7321 16.2349 9.03418 16.1084L9.26758 16.0234C9.50444 15.9509 9.75134 15.9141 10 15.9141L10.248 15.9268C10.4123 15.9431 10.5746 15.9751 10.7324 16.0234L10.9658 16.1084L11.1895 16.2148C11.4037 16.3307 11.6001 16.478 11.7725 16.6514L14 18.8779L19.2266 13.6514V13.6523C19.4575 13.4199 19.7319 13.235 20.0342 13.1084C20.34 12.9804 20.6685 12.9141 21 12.9141C21.2486 12.9141 21.4956 12.9509 21.7324 13.0234L21.9658 13.1084L22.1895 13.2148C22.4039 13.3309 22.5999 13.4788 22.7725 13.6523L25.5 16.3789V6.5H6.5V18.3779Z" fill="#568CFF" fill-opacity="0.9" style="mix-blend-mode:screen"/>
<path d="M12.5 13.5C13.6046 13.5 14.5 12.6046 14.5 11.5C14.5 10.3954 13.6046 9.5 12.5 9.5C11.3954 9.5 10.5 10.3954 10.5 11.5C10.5 12.6046 11.3954 13.5 12.5 13.5Z" fill="#568CFF" fill-opacity="0.9" style="mix-blend-mode:screen"/>
</svg>
