<svg width="18" height="18" viewBox="0 0 18 18" fill="none" xmlns="http://www.w3.org/2000/svg">
<path fill-rule="evenodd" clip-rule="evenodd" d="M3.65625 3.375C3.65625 2.90901 4.03401 2.53125 4.5 2.53125H9.84375C10.7389 2.53125 11.5973 2.88683 12.2302 3.51976C12.8632 4.1527 13.2188 5.01114 13.2188 5.90625C13.2188 6.69062 12.9457 7.44684 12.4523 8.04784C12.7508 8.21237 13.0275 8.41927 13.2729 8.66464C13.9585 9.35032 14.3438 10.2803 14.3438 11.25C14.3438 12.2197 13.9585 13.1497 13.2729 13.8354C12.5872 14.521 11.6572 14.9062 10.6875 14.9062H4.5C4.03401 14.9062 3.65625 14.5285 3.65625 14.0625V3.375ZM5.34375 9.28125V13.2188H10.6875C11.2096 13.2188 11.7104 13.0113 12.0796 12.6421C12.4488 12.2729 12.6562 11.7721 12.6562 11.25C12.6562 10.7279 12.4488 10.2271 12.0796 9.85788C11.7104 9.48867 11.2096 9.28125 10.6875 9.28125H5.34375ZM9.84375 7.59375H5.34375V4.21875H9.84375C10.2913 4.21875 10.7205 4.39654 11.037 4.71301C11.3535 5.02947 11.5312 5.4587 11.5312 5.90625C11.5312 6.3538 11.3535 6.78302 11.037 7.09949C10.7205 7.41596 10.2913 7.59375 9.84375 7.59375Z" fill="#568CFF" fill-opacity="0.9"/>
</svg>
